
<svg xmlns="http://www.w3.org/2000/svg" xmlns:xlink="http://www.w3.org/1999/xlink"
	 viewBox="0 0 150 150" xml:space="preserve">
<style type="text/css">
	.st2{fill:#00ACED;}
	.st6{fill:#FFFFFF;}
	.st8{fill:#CB2027;}
	.st9{fill:#DD4B39;}
	.st11{fill:#12AF0A;}
	.st14{fill:#3B5998;}
	.st23{fill:#7C529E;}
	.st28{fill:#BC2A8D;}
</style>

<g>
	<g>
		<g>
			<g>
				<path class="st2" d="M487.4,38.1c2,4.8,3,9.8,3,15.1c0,5.3-1,10.3-3,15.1c-2,4.8-4.9,9.1-8.6,12.9c-3.8,3.8-8,6.6-12.8,8.6
					c-4.8,2-9.9,3-15.1,3c-5.3,0-10.3-1-15.1-3c-4.8-2-9.1-4.9-12.9-8.6c-3.8-3.8-6.6-8.1-8.6-12.9c-2-4.8-3-9.8-3-15.1
					c0-5.3,1-10.3,3-15.1c2-4.8,4.9-9.1,8.6-12.9c3.8-3.8,8.1-6.6,12.9-8.6c4.8-2,9.9-3,15.1-3c5.3,0,10.3,1,15.1,3
					c4.8,2,9.1,4.9,12.8,8.6C482.6,29,485.4,33.3,487.4,38.1z M471.7,40.2L471.7,40.2c-2.2,0.9-3.8,1.4-4.9,1.4v-0.1
					c0.4-0.2,1-0.7,1.8-1.4c0.9-1.1,1.5-2.2,1.8-3.3c-1.1,0.7-2.3,1.2-3.4,1.6c-1.1,0.3-1.8,0.5-2,0.5c-1.9-1.8-4-2.6-6.3-2.6
					c-2.3,0-4.3,0.8-6,2.4c-1.7,1.7-2.6,3.7-2.6,6.1c0,0.6,0.1,1.2,0.2,2c-0.7,0-1.9-0.1-3.8-0.4c-3.1-0.8-5.9-1.9-8.2-3.4
					c-1.8-1.1-3.8-2.9-5.7-5.1c-0.8,1.4-1.1,2.8-1.1,4.1c0,2.1,0.7,4,2,5.7c0.7,0.8,1.2,1.3,1.7,1.5v0.1c-1.1,0-2.4-0.4-3.8-1
					c0,2.4,0.9,4.5,2.6,6.2c1.1,1,2.1,1.6,3,1.9c0.7,0.2,1.1,0.3,1.2,0.3c0,0.1-0.3,0.2-1,0.3h-1h-0.3c-0.4,0-0.9,0-1.6-0.1
					c0.7,2,1.9,3.5,3.6,4.6c1.5,0.9,3,1.4,4.5,1.4c-0.9,0.7-1.7,1.2-2.4,1.6c-2.6,1.4-5.3,2.1-7.9,2.1c-0.9,0-1.7,0-2.3-0.1
					c4,2.6,8.4,3.8,13.2,3.8c5.9,0,11.2-1.9,15.8-5.8c3.3-3,5.7-6.5,7.1-10.5c1-2.8,1.4-5.3,1.4-7.8v-1.5c0.5-0.3,1.3-1,2.4-2
					C470.6,41.6,471.3,40.8,471.7,40.2z"/>
				<path class="st8" d="M387,136.5c2,4.8,3,9.8,3,15.1c0,5.3-1,10.3-3,15.1c-2,4.8-4.9,9.1-8.6,12.9c-3.8,3.8-8.1,6.6-12.9,8.6
					c-4.8,2-9.9,3-15.1,3c-5.3,0-10.3-1-15.1-3c-4.8-2-9.1-4.9-12.9-8.6c-3.8-3.8-6.6-8.1-8.6-12.9c-2-4.8-3-9.8-3-15.1
					c0-5.3,1-10.3,3-15.1c2-4.8,4.9-9.1,8.6-12.9c3.8-3.8,8-6.6,12.9-8.6c4.8-2,9.8-3,15.1-3c5.3,0,10.3,1,15.1,3
					c4.8,2,9.1,4.9,12.9,8.6C382.1,127.4,385,131.7,387,136.5z"/>
				<path class="st9" d="M387,234.9c2,4.8,3,9.8,3,15.1s-1,10.3-3,15.1c-2,4.8-4.9,9.1-8.6,12.9c-3.8,3.8-8.1,6.6-12.9,8.6
					c-4.8,2-9.9,3-15.1,3c-5.3,0-10.3-1-15.1-3c-4.8-2-9.1-4.9-12.9-8.6c-3.8-3.8-6.6-8-8.6-12.9c-2-4.8-3-9.8-3-15.1s1-10.3,3-15.1
					c2-4.8,4.9-9.1,8.6-12.9c3.8-3.8,8-6.6,12.9-8.6c4.8-2,9.8-3,15.1-3c5.3,0,10.3,1,15.1,3c4.8,2,9.1,4.9,12.9,8.6
					C382.1,225.8,385,230.1,387,234.9z M372.6,251.7v-4.1h-4.1v-4.1h-4v4.1h-4.1v4.1h4.1v4.1h4v-4.1H372.6z M355.8,249.5
					c0-0.5,0-1.1,0-1.8v-0.1c-9,0-13.5,0-13.5,0.1v4.8c0.3,0,3,0.1,8.1,0.1c0,0.2-0.2,0.7-0.6,1.4c-0.1,0.7-0.8,1.7-2.1,2.9
					c-1.7,1.1-3.5,1.7-5.4,1.7c-2.6,0-4.8-1-6.7-3c-1.4-1.6-2-3.6-2-5.9c0-1.6,0.4-3.2,1.2-4.6c0.6-1.1,1.3-1.9,2.2-2.5
					c1.4-1.2,3.1-1.8,5.2-1.8s4,0.6,6,1.9c0.1,0,0.2-0.1,0.4-0.4c1.5-1.5,2.6-2.6,3.1-3.3c-3-2.4-6-3.5-8.9-3.5h-0.6
					c-3.1,0-5.9,0.9-8.3,2.8c-2.6,1.9-4.3,4.3-5.2,7.3c-0.4,1.1-0.6,2.6-0.6,4.4c0,1.5,0.3,3.1,0.8,4.6c1.1,3,3.1,5.5,5.8,7.3
					c2.3,1.4,4.9,2.1,7.6,2.1c3,0,5.8-0.9,8.5-2.7C354.1,258.6,355.8,254.7,355.8,249.5z"/>
          <path  class="st6" d="M355.8,247.7c0,0.6,0,1.2,0,1.8c0,5.2-1.7,9.1-5.1,11.7c-2.7,1.8-5.5,2.7-8.5,2.7c-2.8,0-5.3-0.7-7.6-2.1      c-2.7-1.8-4.6-4.2-5.8-7.3c-0.6-1.5-0.8-3.1-0.8-4.6c0-1.8,0.2-3.3,0.6-4.4c0.9-3,2.6-5.4,5.2-7.3c2.5-1.8,5.3-2.8,8.3-2.8h0.6      c2.9,0,5.8,1.2,8.9,3.5c-0.5,0.7-1.6,1.8-3.1,3.3c-0.2,0.3-0.4,0.4-0.4,0.4c-2-1.3-4-1.9-6-1.9s-3.8,0.6-5.2,1.8      c-0.9,0.6-1.6,1.5-2.2,2.5c-0.8,1.4-1.2,2.9-1.2,4.6c0,2.3,0.7,4.3,2,5.9c1.9,2,4.2,3,6.7,3c2,0,3.8-0.6,5.4-1.7      c1.3-1.2,1.9-2.2,2.1-2.9c0.4-0.7,0.6-1.2,0.6-1.4c-5.1,0-7.8-0.1-8.1-0.1v-4.8C342.2,247.7,346.7,247.6,355.8,247.7      L355.8,247.7z"/>
          <polygon  class="st6" points="372.6,247.6 372.6,251.7 368.5,251.7 368.5,255.8 364.5,255.8 364.5,251.7 360.5,251.7       360.5,247.6 364.5,247.6 364.5,243.6 368.5,243.6 368.5,247.6     "/>
				<path class="st11" d="M387,431.7c2,4.8,3,9.8,3,15.1c0,5.3-1,10.3-3,15.1c-2,4.8-4.9,9.1-8.6,12.9c-3.8,3.8-8.1,6.6-12.9,8.6
					c-4.8,2-9.9,3-15.1,3c-5.3,0-10.3-1-15.1-3c-4.8-2-9.1-4.9-12.9-8.6c-3.8-3.8-6.6-8.1-8.6-12.9c-2-4.8-3-9.9-3-15.1
					c0-5.3,1-10.3,3-15.1c2-4.8,4.9-9.1,8.6-12.9c3.8-3.8,8-6.6,12.9-8.6c4.8-2,9.8-3,15.1-3c5.3,0,10.3,1,15.1,3
					c4.8,2,9.1,4.9,12.9,8.6C382.1,422.6,385,426.9,387,431.7z M371.3,447.1v-2.5c-0.5-5.3-2.5-9.6-6-13.2
					c-3.4-3.4-7.8-5.4-13.2-5.9h-2.5c-5.7,0.6-10.1,2.6-13.5,6.2c-3.8,4.1-5.8,8.8-5.8,14c0,3.2,0.8,6.4,2.4,9.5
					c0.2,0.4,0.2,0.8,0.2,1.2c0,0.4-0.1,0.9-0.2,1.3c-2.2,6.4-3.3,9.6-3.3,9.6l0.2-0.2c0,0.1,0.1,0.2,0.1,0.2
					c1.4-0.5,3.3-1.1,5.6-1.8c3-1,4.9-1.6,5.6-1.8c3.4,1.7,6.7,2.6,9.9,2.6h0.6c3.8-0.2,7.1-1.1,10.1-3
					C367.3,459.6,370.6,454.3,371.3,447.1z"/>
				<path class="st11" d="M368.1,445.6c0,1.6-0.2,3.3-0.7,5.1c-1.5,5-4.8,8.6-9.8,10.8c-2.2,1-4.5,1.5-7,1.5c-0.6,0-1.2,0-1.8-0.1
					c-2.3-0.3-4.9-1.2-7.5-2.8l-6.6,2.1c0.1-0.3,0.6-1.8,1.5-4.6l0.6-1.6c0,0-0.4-0.6-1.2-1.8c-1.1-2.1-1.8-4.3-2-6.6
					c-0.1-0.6-0.1-1.3-0.1-2c0-5.6,2.4-10.2,7.3-13.7c2.6-1.9,5.5-2.9,8.6-3.1c0.5,0,0.9,0,1.4,0c5.3,0,9.7,2,13.1,6.1
					C366.7,438.1,368.1,441.7,368.1,445.6z M361.1,451.1c0-0.2,0-0.3,0-0.5c-0.3-0.3-0.4-0.4-0.4-0.4s-0.6-0.3-1.8-0.9
					c-1.5-0.7-2.4-1.1-2.6-1.1c-0.2,0-0.7,0.4-1.3,1.2c-0.7,0.9-1.1,1.3-1.3,1.3h-0.1c-0.4,0-1.2-0.3-2.4-1
					c-1.3-0.7-2.6-1.8-3.7-3.3c-0.9-1.2-1.4-2-1.4-2.3l0.9-1.2c0.5-0.5,0.8-1,0.8-1.4c0-0.1-0.3-1-1-2.6c-0.6-1.4-1.1-2.2-1.3-2.3
					c-0.3-0.1-0.6-0.2-0.9-0.2s-0.7,0-1.1,0.1c-1.7,0.5-2.6,2.1-2.6,4.7c0,1.5,0.8,3.4,2.4,5.7c2.2,3.1,4.7,5.3,7.3,6.5
					c2,1,3.8,1.6,5.2,1.8h0.5c0.8,0,1.7-0.2,2.7-0.7C360.4,453.9,361.1,452.7,361.1,451.1z"/>
          <path  class="st6" d="M361.1,450.6c0,0.2,0,0.4,0,0.5c0,1.6-0.8,2.8-2.2,3.6c-1,0.5-1.9,0.7-2.7,0.7h-0.5      c-1.5-0.2-3.2-0.8-5.2-1.8c-2.6-1.2-5.1-3.4-7.3-6.5c-1.6-2.3-2.4-4.2-2.4-5.7c0-2.7,0.9-4.2,2.6-4.7c0.4-0.1,0.7-0.1,1.1-0.1      s0.7,0.1,0.9,0.2c0.2,0.1,0.6,0.9,1.3,2.3c0.7,1.6,1,2.5,1,2.6c0,0.4-0.3,0.9-0.8,1.4l-0.9,1.2c0,0.3,0.5,1.1,1.4,2.3      c1.1,1.5,2.4,2.6,3.7,3.3c1.2,0.7,2,1,2.4,1h0.1c0.2,0,0.6-0.5,1.3-1.3c0.7-0.8,1.1-1.2,1.3-1.2c0.3,0,1.2,0.4,2.6,1.1      c1.2,0.6,1.8,0.9,1.8,0.9S360.8,450.3,361.1,450.6z"/>
          <path  class="st6" d="M371.3,444.6v2.5c-0.7,7.1-4,12.5-9.8,16.1c-3,1.8-6.3,2.8-10.1,3h-0.6c-3.2,0-6.5-0.9-9.9-2.6      c-0.7,0.2-2.6,0.8-5.6,1.8c-2.3,0.7-4.2,1.3-5.6,1.8c-0.1,0-0.1-0.1-0.1-0.2l-0.2,0.2c0,0,1.1-3.3,3.3-9.6      c0.1-0.4,0.2-0.8,0.2-1.3c0-0.4-0.1-0.8-0.2-1.2c-1.6-3.2-2.4-6.4-2.4-9.5c0.1-5.2,2-9.9,5.8-14c3.3-3.5,7.8-5.6,13.5-6.2h2.5      c5.4,0.5,9.8,2.4,13.2,5.9C368.8,435,370.8,439.3,371.3,444.6z M367.4,450.7c0.5-1.8,0.7-3.5,0.7-5.1c0-3.9-1.4-7.4-4.3-10.7      c-3.4-4.1-7.7-6.1-13.1-6.1c-0.5,0-0.9,0-1.4,0c-3.1,0.2-6,1.2-8.6,3.1c-4.8,3.5-7.3,8.1-7.3,13.7c0,0.7,0,1.3,0.1,2      c0.2,2.3,0.9,4.5,2,6.6c0.8,1.2,1.1,1.8,1.2,1.8l-0.6,1.6c-0.9,2.8-1.4,4.4-1.5,4.6l6.6-2.1c2.7,1.6,5.2,2.5,7.5,2.8      c0.6,0.1,1.2,0.1,1.8,0.1c2.4,0,4.8-0.5,7-1.5C362.6,459.3,365.9,455.7,367.4,450.7z"/>
				<path class="st14" d="M286.6,234.9c2,4.8,3,9.8,3,15.1s-1,10.3-3,15.1c-2,4.8-4.9,9.1-8.6,12.9c-3.8,3.8-8,6.6-12.9,8.6
					c-4.8,2-9.8,3-15.1,3c-5.3,0-10.3-1-15.1-3c-4.8-2-9.1-4.9-12.9-8.6c-3.8-3.8-6.6-8-8.6-12.9c-2-4.8-3-9.8-3-15.1s1-10.3,3-15.1
					c2-4.8,4.9-9.1,8.6-12.9c3.8-3.8,8-6.6,12.9-8.6c4.8-2,9.8-3,15.1-3c5.3,0,10.3,1,15.1,3c4.8,2,9.1,4.9,12.9,8.6
					C281.7,225.8,284.6,230.1,286.6,234.9z M260.8,236v-6.6c-1.8-0.2-3.7-0.3-5.7-0.3c-3.9,0-6.6,1.4-8.3,4.2
					c-0.9,1.6-1.4,3.4-1.4,5.4v5.7h-6.4v7.4h6.4v19.1h7.7v-19.1h6.4l1-7.4h-7.4v-4.2c0-1.2,0.1-1.9,0.2-2.2c0-0.1,0.1-0.3,0.3-0.7
					c0.5-0.9,1.7-1.3,3.7-1.3H260.8z"/>
          <path  class="st6" d="M260.8,229.4v6.6h-3.4c-2,0-3.3,0.4-3.7,1.3c-0.2,0.4-0.3,0.6-0.3,0.7c-0.1,0.3-0.2,1-0.2,2.2v4.2h7.4      l-1,7.4h-6.4v19.1h-7.7v-19.1h-6.4v-7.4h6.4v-5.7c0-2.1,0.5-3.9,1.4-5.4c1.6-2.8,4.4-4.2,8.3-4.2      C257.1,229.1,259,229.2,260.8,229.4z"/>
				<path class="st23" d="M186.2,431.7c2,4.8,3,9.8,3,15.1c0,5.3-1,10.3-3,15.1c-2,4.8-4.9,9.1-8.6,12.9c-3.8,3.8-8.1,6.6-12.9,8.6
					c-4.8,2-9.8,3-15.1,3c-5.3,0-10.3-1-15.1-3c-4.8-2-9.1-4.9-12.9-8.6c-3.8-3.8-6.6-8.1-8.6-12.9c-2-4.8-3-9.9-3-15.1
					c0-5.3,1-10.3,3-15.1c2-4.8,4.9-9.1,8.6-12.9c3.8-3.8,8-6.6,12.9-8.6c4.8-2,9.9-3,15.1-3c5.3,0,10.3,1,15.1,3
					c4.8,2,9.1,4.9,12.9,8.6C181.3,422.6,184.2,426.9,186.2,431.7z M169.1,445.9c0-0.1,0-0.3-0.1-0.4c0-0.2-0.1-0.4-0.1-0.7
					c0-3.2-0.8-6.2-2.3-8.9c-1.6-2.7-3.7-4.9-6.4-6.7c-2.7-1.7-5.7-2.7-8.9-2.9c-0.1,0-0.3,0-0.5,0c-0.2,0-0.5,0-0.7,0
					c-0.7,0-1,0.4-1,1.2c0,0.4,0.1,0.6,0.3,0.7c0.2,0.1,0.5,0.2,0.8,0.2c0.3,0,0.6,0.1,0.7,0.2c5.1,0.7,8.8,2.4,11.3,5
					c2.5,2.6,4.1,6.4,4.8,11.4l-0.1,0.8c0,0.3,0,0.6,0.1,0.9c0.1,0.4,0.4,0.5,0.9,0.5c0.6,0,0.9-0.2,1-0.6
					C169.1,446.3,169.1,446.1,169.1,445.9z M166.1,465.2c2.3-1.8,3.4-3.7,3.4-5.5c0-1.2-0.8-2.4-2.4-3.6c-1.4-1.1-3-2.1-4.6-3
					c-1.1-1-2.3-1.5-3.4-1.5c-0.1,0-0.4,0-1.1,0.1c-0.6,0-1.4,0.8-2.4,2.4c-0.6,0.9-1.4,1.3-2.4,1.3c-0.5,0-1.1-0.1-1.8-0.4
					c-4.5-1.8-7.8-5-9.8-9.6c-0.4-0.8-0.6-1.5-0.6-2.2c0-0.2,0-0.6,0.1-1.1c0.1-0.5,0.6-1.1,1.6-1.7c0.6-0.4,1.1-0.9,1.5-1.4
					c0.4-0.5,0.6-1.2,0.6-2.1c-0.1-0.7-0.6-1.8-1.5-3.2c-3-4.5-5.3-6.8-7.1-6.8c-0.4,0-0.9,0.1-1.3,0.2c-3.7,1.4-5.5,3.6-5.5,6.8
					c0,1,0.2,2.1,0.7,3.3c5.8,13.8,15.5,23.5,29.3,29.3c0.6,0.4,1.2,0.6,1.9,0.6C163,466.9,164.5,466.3,166.1,465.2z M164.2,443.5
					c0-0.2,0-0.3,0-0.4c0-2.9-1.1-5.5-3.2-7.8c-2.1-2.3-4.8-3.7-7.8-4.2c-0.4-0.1-0.8-0.2-1.3-0.2c-0.1,0-0.3,0-0.6,0.1
					c-0.3,0.1-0.5,0.5-0.6,1.3c0,0.6,0.5,1,1.5,1c3.3,0.7,5.7,1.8,7.1,3.2c1.4,1.5,2.3,3.7,2.8,6.7v0.7c0,0.3,0.1,0.6,0.2,0.9
					c0.1,0.3,0.5,0.5,1.2,0.5c0.5-0.2,0.8-0.6,0.8-1.3V443.5z M159.4,443c0.1-0.3,0.1-0.7,0.1-1c0-1.4-0.6-2.7-1.9-4s-2.6-2-4-2
					c-0.3,0-0.6,0-0.9,0c-0.5,0.1-0.8,0.5-0.8,1.1c0,0.5,0.4,0.9,1.2,1c2.6,0.4,4,1.9,4.2,4.5c0.2,0.7,0.6,1,1.2,1
					C159.1,443.6,159.4,443.4,159.4,443z"/>
          <path  class="st6" d="M164.2,443.1c0,0.1,0,0.2,0,0.4v0.4c0,0.7-0.3,1.1-0.8,1.3c-0.7,0-1-0.2-1.2-0.5c-0.1-0.3-0.2-0.6-0.2-0.9      v-0.7c-0.4-3-1.4-5.2-2.8-6.7c-1.4-1.5-3.8-2.5-7.1-3.2c-1,0-1.5-0.3-1.5-1c0.1-0.8,0.3-1.2,0.6-1.3c0.3-0.1,0.5-0.1,0.6-0.1      c0.5,0,0.9,0.1,1.3,0.2c3.1,0.5,5.7,2,7.8,4.2C163.1,437.6,164.2,440.2,164.2,443.1z"/>
          <path  class="st6" d="M159.6,442c0,0.4,0,0.7-0.1,1c-0.1,0.3-0.4,0.5-0.9,0.6c-0.7,0-1.1-0.4-1.2-1c-0.1-2.6-1.5-4.1-4.2-4.5      c-0.8-0.1-1.2-0.5-1.2-1c0-0.6,0.3-1,0.8-1.1c0.3,0,0.6,0,0.9,0c1.4,0,2.8,0.7,4,2S159.6,440.6,159.6,442z"/>
          <path  class="st6" d="M169.1,445.4c0,0.2,0.1,0.3,0.1,0.4c0,0.2,0,0.4-0.1,0.6c-0.1,0.4-0.4,0.6-1,0.6c-0.5,0-0.8-0.2-0.9-0.5      c-0.1-0.4-0.1-0.7-0.1-0.9l0.1-0.8c-0.7-5-2.3-8.9-4.8-11.4c-2.5-2.6-6.3-4.2-11.3-5c-0.2-0.1-0.4-0.2-0.7-0.2      c-0.3,0-0.6-0.1-0.8-0.2c-0.2-0.1-0.3-0.4-0.3-0.7c0-0.8,0.3-1.2,1-1.2c0.3,0,0.5,0,0.7,0c0.2,0,0.4,0,0.5,0      c3.2,0.2,6.2,1.2,8.9,2.9c2.7,1.8,4.8,4,6.4,6.7c1.6,2.7,2.3,5.7,2.3,8.9C169,445,169,445.3,169.1,445.4z"/>
          <path  class="st6" d="M169.5,459.6c0,1.9-1.1,3.7-3.4,5.5c-1.5,1.1-3.1,1.7-4.7,1.7c-0.7,0-1.3-0.2-1.9-0.6      c-13.8-5.7-23.5-15.5-29.3-29.3c-0.4-1.2-0.7-2.3-0.7-3.3c0-3.2,1.8-5.5,5.5-6.8c0.4-0.2,0.9-0.2,1.3-0.2c1.8,0,4.1,2.3,7.1,6.8      c0.9,1.4,1.4,2.5,1.5,3.2c0,0.9-0.2,1.6-0.6,2.1c-0.4,0.5-0.9,1-1.5,1.4c-1,0.6-1.6,1.2-1.6,1.7c-0.1,0.5-0.1,0.9-0.1,1.1      c0,0.7,0.2,1.4,0.6,2.2c2,4.5,5.3,7.7,9.8,9.6c0.6,0.3,1.2,0.4,1.8,0.4c1,0,1.8-0.4,2.4-1.3c1-1.5,1.8-2.3,2.4-2.4      c0.6,0,1-0.1,1.1-0.1c1.1,0,2.3,0.5,3.4,1.5c1.7,0.9,3.2,1.9,4.6,3C168.7,457.3,169.5,458.5,169.5,459.6z"/>
				<path class="st28" d="M85.8,431.7c2,4.8,3,9.8,3,15.1c0,5.3-1,10.3-3,15.1c-2,4.8-4.9,9.1-8.6,12.9c-3.8,3.8-8,6.6-12.8,8.6
					c-4.8,2-9.8,3-15.1,3c-5.3,0-10.3-1-15.1-3c-4.8-2-9.1-4.9-12.8-8.6c-3.8-3.8-6.6-8.1-8.6-12.9c-2-4.8-3-9.9-3-15.1
					c0-5.3,1-10.3,3-15.1c2-4.8,4.9-9.1,8.6-12.9c3.8-3.8,8-6.6,12.8-8.6c4.8-2,9.9-3,15.1-3c5.3,0,10.3,1,15.1,3
					c4.8,2,9.1,4.9,12.8,8.6C80.9,422.6,83.8,426.9,85.8,431.7z M69.1,447c0-1.8,0-3.1,0-4.1c0-0.9,0-1.7,0-2.3c0-0.6,0-1.2-0.1-1.9
					c-0.1-2-0.4-3.7-0.9-4.8c-0.5-1.3-1.3-2.5-2.3-3.5c-1.1-1.1-2.2-1.8-3.5-2.3c-1.2-0.5-2.8-0.8-4.9-0.9c-0.7,0-1.3,0-1.9-0.1
					c-0.6,0-1.3,0-2.3,0c-0.9,0-2.3,0-4.1,0c-1.8,0-3.2,0-4.1,0c-0.9,0-1.7,0-2.3,0c-0.6,0-1.2,0-1.9,0.1c-2.1,0.1-3.7,0.4-4.9,0.9
					c-1.3,0.5-2.5,1.3-3.5,2.3c-1.1,1.1-1.8,2.3-2.3,3.5c-0.5,1.2-0.8,2.8-0.9,4.8c0,0.7,0,1.3-0.1,1.9c0,0.6,0,1.3,0,2.3
					c0,0.9,0,2.3,0,4.1c0,1.8,0,3.2,0,4.1c0,0.9,0,1.7,0,2.3c0,0.6,0,1.2,0.1,1.9c0.1,2,0.4,3.7,0.9,4.8c0.5,1.3,1.3,2.5,2.3,3.5
					c1.1,1.1,2.2,1.8,3.5,2.3c1.2,0.5,2.8,0.8,4.9,0.9c0.7,0,1.3,0.1,1.9,0.1c0.6,0,1.3,0,2.3,0s2.3,0,4.1,0c1.8,0,3.2,0,4.1,0
					c0.9,0,1.7,0,2.3,0s1.2-0.1,1.9-0.1c2.1-0.1,3.7-0.4,4.9-0.9c1.3-0.5,2.5-1.3,3.5-2.3c1.1-1.1,1.8-2.3,2.3-3.5
					c0.5-1.2,0.8-2.8,0.9-4.8c0-0.7,0.1-1.3,0.1-1.9c0-0.6,0-1.3,0-2.3C69.1,450.2,69.1,448.9,69.1,447z"/>
				<path class="st28" d="M65.5,447c0,1.8,0,3.1,0,4c0,0.9,0,1.7,0,2.2s-0.1,1.2-0.1,1.8c-0.1,1.8-0.4,3.1-0.7,3.7
					c-0.3,0.9-0.8,1.7-1.5,2.3c-0.6,0.7-1.4,1.2-2.3,1.5c-0.6,0.3-1.9,0.5-3.7,0.7c-0.7,0-1.3,0-1.8,0.1c-0.6,0-1.3,0-2.2,0
					c-0.9,0-2.2,0-4,0c-1.8,0-3.1,0-4,0c-0.9,0-1.6,0-2.2,0c-0.6,0-1.2,0-1.8-0.1c-1.9-0.1-3.1-0.4-3.7-0.7
					c-0.9-0.4-1.6-0.9-2.3-1.5c-0.7-0.7-1.2-1.4-1.5-2.3c-0.3-0.6-0.5-1.8-0.7-3.7c0-0.7-0.1-1.3-0.1-1.8c0-0.6,0-1.3,0-2.2
					c0-0.9,0-2.3,0-4c0-1.8,0-3.1,0-4c0-0.9,0-1.6,0-2.2c0-0.6,0-1.2,0.1-1.8c0.1-1.9,0.4-3.1,0.7-3.7c0.3-0.9,0.8-1.6,1.5-2.3
					c0.7-0.7,1.4-1.2,2.3-1.5c0.6-0.3,1.8-0.5,3.7-0.7c0.6-0.1,1.1-0.1,1.6-0.1c0.5,0,1.1,0,1.8,0c0.7,0,1.7,0,2.9,0
					c0.3,0,0.7,0,1.1,0c0.2,0,0.4,0,0.7,0c1.8,0,3.1,0,4,0s1.6,0,2.2,0c0.6,0,1.2,0.1,1.8,0.1c1.9,0.1,3.1,0.4,3.7,0.7
					c0.9,0.3,1.6,0.8,2.3,1.5c0.7,0.6,1.2,1.4,1.5,2.3c0.3,0.6,0.6,1.9,0.7,3.7c0,0.7,0.1,1.3,0.1,1.8c0,0.6,0,1.3,0,2.2
					C65.5,443.9,65.5,445.3,65.5,447z M62.2,436.4c0-0.6-0.2-1.2-0.7-1.7c-0.5-0.5-1-0.7-1.7-0.7c-0.7,0-1.2,0.2-1.7,0.7
					c-0.5,0.5-0.7,1-0.7,1.7c0,0.7,0.2,1.2,0.7,1.7c0.5,0.5,1,0.7,1.7,0.7c0.6,0,1.2-0.2,1.7-0.7C61.9,437.6,62.2,437.1,62.2,436.4z
					 M59.4,447c0-2.8-1-5.3-3-7.3s-4.4-3-7.3-3c-2.8,0-5.2,1-7.2,3s-3,4.4-3,7.3c0,2.9,1,5.3,3,7.3s4.4,3,7.2,3c2.8,0,5.3-1,7.3-3
					S59.4,449.9,59.4,447z"/>
				<path class="st28" d="M53.8,442.4c1.3,1.3,2,2.9,2,4.7c0,1.8-0.7,3.4-2,4.7c-1.3,1.3-2.9,2-4.7,2c-1.8,0-3.4-0.7-4.7-2
					c-1.3-1.3-2-2.9-2-4.7c0-1.8,0.7-3.4,2-4.7c1.3-1.3,2.9-2,4.7-2C51,440.4,52.5,441,53.8,442.4z"/>
          <path  class="st6" d="M69.1,443c0,0.9,0,2.3,0,4.1c0,1.8,0,3.2,0,4.1c0,0.9,0,1.7,0,2.3c0,0.6,0,1.2-0.1,1.9      c-0.1,2-0.4,3.7-0.9,4.8c-0.5,1.3-1.3,2.5-2.3,3.5c-1.1,1.1-2.2,1.8-3.5,2.3c-1.2,0.5-2.8,0.8-4.9,0.9c-0.7,0-1.3,0.1-1.9,0.1      s-1.3,0-2.3,0c-0.9,0-2.3,0-4.1,0c-1.8,0-3.1,0-4.1,0s-1.7,0-2.3,0c-0.6,0-1.2-0.1-1.9-0.1c-2.1-0.1-3.7-0.4-4.9-0.9      c-1.3-0.5-2.5-1.3-3.5-2.3c-1.1-1.1-1.8-2.3-2.3-3.5c-0.5-1.2-0.8-2.8-0.9-4.8c0-0.7,0-1.3-0.1-1.9c0-0.6,0-1.3,0-2.3      c0-0.9,0-2.3,0-4.1c0-1.8,0-3.1,0-4.1c0-0.9,0-1.7,0-2.3c0-0.6,0-1.2,0.1-1.9c0.1-2,0.4-3.7,0.9-4.8c0.5-1.3,1.3-2.5,2.3-3.5      c1.1-1.1,2.2-1.8,3.5-2.3c1.2-0.5,2.8-0.8,4.9-0.9c0.7,0,1.3,0,1.9-0.1c0.6,0,1.3,0,2.3,0c0.9,0,2.3,0,4.1,0c1.8,0,3.2,0,4.1,0      c0.9,0,1.7,0,2.3,0c0.6,0,1.2,0,1.9,0.1c2,0.1,3.7,0.4,4.9,0.9c1.3,0.5,2.5,1.3,3.5,2.3c1.1,1.1,1.8,2.3,2.3,3.5      c0.5,1.2,0.8,2.8,0.9,4.8c0,0.7,0.1,1.3,0.1,1.9C69,441.3,69.1,442,69.1,443z M65.5,451.1c0-0.9,0-2.3,0-4c0-1.8,0-3.1,0-4      c0-0.9,0-1.6,0-2.2c0-0.6-0.1-1.2-0.1-1.8c-0.1-1.9-0.4-3.1-0.7-3.7c-0.3-0.9-0.8-1.6-1.5-2.3c-0.6-0.7-1.4-1.2-2.3-1.5      c-0.6-0.3-1.9-0.5-3.7-0.7c-0.7,0-1.3-0.1-1.8-0.1c-0.6,0-1.3,0-2.2,0s-2.2,0-4,0c-0.2,0-0.5,0-0.7,0c-0.4,0-0.8,0-1.1,0      c-1.2,0-2.2,0-2.9,0c-0.7,0-1.3,0-1.8,0c-0.5,0-1,0-1.6,0.1c-1.9,0.1-3.1,0.4-3.7,0.7c-0.9,0.3-1.6,0.8-2.3,1.5      c-0.7,0.6-1.2,1.4-1.5,2.3c-0.3,0.6-0.5,1.9-0.7,3.7c0,0.7-0.1,1.3-0.1,1.8c0,0.6,0,1.3,0,2.2c0,0.9,0,2.2,0,4c0,1.8,0,3.1,0,4      c0,0.9,0,1.7,0,2.2c0,0.6,0,1.2,0.1,1.8c0.1,1.8,0.4,3.1,0.7,3.7c0.3,0.9,0.8,1.7,1.5,2.3c0.7,0.6,1.4,1.1,2.3,1.5      c0.6,0.3,1.8,0.5,3.7,0.7c0.7,0,1.3,0,1.8,0.1c0.6,0,1.3,0,2.2,0c0.9,0,2.3,0,4,0c1.8,0,3.1,0,4,0c0.9,0,1.6,0,2.2,0      c0.6,0,1.2,0,1.8-0.1c1.9-0.1,3.1-0.4,3.7-0.7c0.9-0.3,1.6-0.8,2.3-1.5c0.7-0.7,1.2-1.4,1.5-2.3c0.3-0.6,0.6-1.8,0.7-3.7      c0-0.7,0.1-1.3,0.1-1.8S65.5,452,65.5,451.1z"/>
          <path  class="st6" d="M56.4,439.8c2,2,3,4.4,3,7.3c0,2.9-1,5.3-3,7.3s-4.4,3-7.3,3c-2.8,0-5.2-1-7.2-3s-3-4.4-3-7.3      c0-2.8,1-5.3,3-7.3s4.4-3,7.2-3C52,436.8,54.4,437.8,56.4,439.8z M55.8,447c0-1.8-0.7-3.4-2-4.7c-1.3-1.3-2.9-2-4.7-2      c-1.8,0-3.4,0.7-4.7,2c-1.3,1.3-2,2.9-2,4.7c0,1.8,0.7,3.4,2,4.7c1.3,1.3,2.9,2,4.7,2c1.8,0,3.4-0.7,4.7-2      C55.1,450.5,55.8,448.9,55.8,447z"/>
          <path  class="st6" d="M61.5,434.7c0.5,0.5,0.7,1,0.7,1.7c0,0.7-0.2,1.2-0.7,1.7c-0.5,0.5-1,0.7-1.7,0.7c-0.7,0-1.2-0.2-1.7-0.7      c-0.5-0.5-0.7-1-0.7-1.7c0-0.6,0.2-1.2,0.7-1.7c0.5-0.5,1-0.7,1.7-0.7C60.5,434,61,434.3,61.5,434.7z"/>

          <path  class="st6" d="M471.7,40.2L471.7,40.2c-0.4,0.7-1.1,1.5-1.9,2.4c-1.1,1.1-1.9,1.8-2.4,2v1.5c0,2.4-0.5,5-1.4,7.8      c-1.4,4-3.8,7.5-7.1,10.5c-4.6,3.8-9.8,5.8-15.8,5.8c-4.8,0-9.2-1.3-13.2-3.8c0.6,0.1,1.3,0.1,2.3,0.1c2.6,0,5.3-0.7,7.9-2.1      c0.7-0.4,1.6-0.9,2.4-1.6c-1.5,0-3-0.5-4.5-1.4c-1.7-1.1-2.9-2.6-3.6-4.6c0.6,0.1,1.1,0.1,1.6,0.1h0.3h1c0.6-0.1,1-0.2,1-0.3      c-0.1,0-0.5-0.1-1.2-0.3c-0.9-0.3-1.9-0.9-3-1.9c-1.7-1.8-2.6-3.8-2.6-6.2c1.4,0.7,2.6,1,3.8,1v-0.1c-0.4-0.2-1-0.8-1.7-1.5      c-1.3-1.7-2-3.6-2-5.7c0-1.3,0.4-2.7,1.1-4.1c2,2.3,3.9,4,5.7,5.1c2.4,1.5,5.1,2.6,8.2,3.4c1.8,0.3,3.1,0.4,3.8,0.4      c-0.2-0.7-0.2-1.4-0.2-2c0-2.4,0.9-4.4,2.6-6.1c1.7-1.6,3.7-2.4,6-2.4c2.3,0,4.4,0.9,6.3,2.6c0.2,0,0.8-0.2,2-0.5      c1.2-0.4,2.3-0.9,3.4-1.6c-0.3,1.1-0.9,2.2-1.8,3.3c-0.9,0.7-1.5,1.2-1.8,1.4v0.1C467.9,41.5,469.5,41.1,471.7,40.2z"/>
			</g>
			<g>
			</g>
		</g>
	</g>
  	<g>
		<g>
			<g>
				<path class="st8" d="M340.9,151.9c0-0.2-0.1-0.3-0.3-0.5c-1.2-1.3-1.7-3-1.7-5c0-2.8,0.8-5.2,2.5-7.3c0.5-0.6,1-1.2,1.7-1.7
					c2.2-1.7,4.7-2.6,7.6-2.6c2.9,0,5.3,0.8,7.1,2.3c2,1.8,3,4.1,3,7c0,2.9-0.5,5.5-1.6,7.9c-0.3,0.7-0.6,1.3-1,1.8
					c-1.5,2.1-3.2,3.2-5.1,3.2c-0.9,0-1.8-0.3-2.5-0.8c-0.9-0.8-1.4-1.7-1.4-2.8v-0.2c0-0.5,0.3-1.6,0.8-3.3c0.9-3,1.4-5,1.4-6.1
					c0-0.7-0.1-1.4-0.4-1.9c-0.6-1.1-1.6-1.7-2.8-1.7c-1.2,0-2.2,0.5-3.1,1.6c-1,1.3-1.6,2.8-1.6,4.6c0,1.4,0.3,2.7,0.8,3.8l-0.7,3
					l-2.8-0.7C340.9,152.1,340.9,152,340.9,151.9z"/>
				<path class="st6" d="M340.4,154.2c0,0.3-0.1,0.6-0.3,0.7c-0.2,0-0.3,0.1-0.4,0.1h-0.1c-0.3,0-0.9-0.3-1.9-0.8
					c-0.7-0.6-1.2-1.1-1.6-1.6c-1.3-1.8-1.9-4.1-1.9-6.8c0-2.7,0.9-5.4,2.6-8c0.3-0.5,0.9-1.2,1.7-2.1c0.9-0.8,1.6-1.4,2.1-1.7
					c3-2.2,6.6-3.3,10.8-3.3c3.2,0,6.1,0.8,8.6,2.4c2.7,1.7,4.7,3.9,5.9,6.8c0.5,1.6,0.8,3.1,0.8,4.7c0,4.1-1,7.7-2.9,10.8
					c-1.6,2.3-3.5,4-5.9,4.9c-1.4,0.5-2.7,0.8-4.1,0.8h0c0,0-0.1,0-0.2,0c-1.4,0-2.8-0.4-4.1-1.3c-0.3-0.2-0.6-0.4-1.1-0.8
					c-0.3-0.3-0.5-0.6-0.7-0.9c-0.8,3.3-1.3,5.7-1.7,7.1c-0.5,1.1-0.9,2.1-1.4,3c-0.6,1-1.3,2.2-2.3,3.4c-0.4,0.6-0.7,0.9-0.8,1
					c0,0-0.1,0-0.1,0h-0.1c-0.1-0.1-0.2-0.2-0.2-0.5c-0.2-1.5-0.3-3-0.3-4.3v-0.5c0-1.7,0.2-3.4,0.6-5l2.2-9.3l0.7-3
					c-0.5-1.1-0.8-2.4-0.8-3.8c0-1.8,0.5-3.3,1.6-4.6c0.9-1.1,1.9-1.6,3.1-1.6c1.3,0,2.2,0.6,2.8,1.7c0.3,0.6,0.4,1.2,0.4,1.9
					c0,1.1-0.5,3.1-1.4,6.1c-0.5,1.7-0.8,2.8-0.8,3.3v0.2c0,1.1,0.5,2,1.4,2.8c0.8,0.5,1.6,0.8,2.5,0.8c1.9,0,3.7-1.1,5.1-3.2
					c0.3-0.5,0.6-1.1,1-1.8c1-2.4,1.6-5,1.6-7.9c0-2.9-1-5.2-3-7c-1.9-1.5-4.2-2.3-7.1-2.3c-2.8,0-5.4,0.8-7.6,2.6
					c-0.7,0.5-1.3,1.1-1.7,1.7c-1.6,2.1-2.5,4.6-2.5,7.3c0,2,0.6,3.6,1.7,5c0.2,0.2,0.3,0.4,0.3,0.5c0,0.1,0,0.2-0.1,0.5
					C340.7,152.8,340.6,153.4,340.4,154.2z"/>
			</g>
			<g>
			</g>
		</g>
	</g>
</g>
</svg>
